<?xml version="1.0" encoding="utf-8"?>
<!-- Generator: Adobe Illustrator 18.1.0, SVG Export Plug-In . SVG Version: 6.00 Build 0)  -->
<svg version="1.1" id="Layer_1" xmlns="http://www.w3.org/2000/svg" xmlns:xlink="http://www.w3.org/1999/xlink" x="0px" y="0px"
	 viewBox="0 0 2000 2000" enable-background="new 0 0 2000 2000" xml:space="preserve">
<g>
	<path fill="#231F20" d="M1648.9,1543.3c1.8,0.1,3.6,0.3,5.4,0.4c-2.8,0.3-5.6,0.5-8.4,0.8
		C1646.9,1544.1,1647.9,1543.7,1648.9,1543.3z"/>
	<path fill="#F7941D" d="M1151.8,1530.9c-21.8-1.8-43.6-3.4-65.6-3.4c-13.5-0.5-87.6,4.2-81.7-17.5c21.8-61.8,44.4-125.9,40.1-192.3
		c1.2-1.1,0.6-3.5-1-3.9c-0.3-0.4-0.7-0.8-1.2-1c-5.5-11.8-20.8-17.5-28.3-28.5c-29-35-3.1-77.8,0.5-116.4
		c-7.1-25.2-32-40.7-44.6-63c-15.3-5,36.2-56.8,42.1-64.9c-0.2,0.2-0.4,0.4-0.6,0.6c7.7-8.3,14.8-17.2,21.4-26.5c0,0,0,0,0,0
		c4.9-5.6,7.9-15.2,15.9-16.7c13.4,1.2,27.1,1.6,40.5,3.9c6.6,0.7,9.6,4,11.3,10c3.9,8.5,9.5,15.8,15.3,23
		c13.6,19,12.8,43.8,14.5,66.1c2.6,25.9,7.7,51.7,16,76.4c49-47.9,100.8-93.4,144.3-146.6c11-15.2,15.6-33.6,23.2-50.5
		c2.2-6.3,4.1-12.7,5.4-19.2c-0.5-3.2,1.2-6.8,4.2-8.2c5.6-2.4,11.7,1.5,17.2,2.9c14.3,4.4,28.8,8,43.2,12.2
		c20.2,6.3,41.1,9.6,61.5,15c4.6,1.3,11.1,0.4,13.5,5.5c-23.4,41.2-40.3,86.8-49.9,133.2c-14.5,32-17.2,67.7-25.5,101.5
		c-3.5,21.9-10.5,42.9-16.9,64.2c-7.6,29.4-13.3,59.6-13.2,90.1c0-0.2,0-0.3,0-0.5c0,0.2,0,0.4,0,0.6c0,0,0-0.1,0-0.1
		c0,0,0,0.1,0,0.1c0,0,0,0,0,0c0,0,0,0,0,0.1c0,0,0,0,0-0.1c-0.7,10.8-2.1,21.5-2.4,32.2c0,0,0-0.1,0-0.1c0,0.1,0,0.1,0,0.2
		c0,0,0-0.1,0-0.1c0,0.2,0,0.5,0,0.7c0,0,0,0,0-0.1c0,30.2,2.1,60.4,3.7,90.6c0,0,0-0.1,0-0.1c0.4,5.9,0.9,11.8,1.8,17.6
		c-33.5,2.6-67.1,4.7-100.7,6.1C1221.2,1526.4,1186.6,1531.3,1151.8,1530.9z"/>
	<path fill="#F7941D" d="M1081.1,914.8c-13.9,0.4-15.2-17.1-3.2-21.6c7.4-2.7,20.5-2.8,21.1,7.6
		C1099.7,910.4,1089.5,915.9,1081.1,914.8z"/>
	<path fill="#F7941D" d="M1167.8,907.5c-12.1,0.8-22.9-13.1-13.1-22.9c10.3-8.1,31.1-9.5,37.9,3.7
		C1198.4,902.6,1178.4,907.7,1167.8,907.5z"/>
	<path fill="#F7941D" d="M1049.2,531.4c-0.2-7.8,5.6-15.2,10.7-20.7c6.9-6.8,16.9-5.3,25.5-7.6c4.6-2.8,9.5-9.4,15.1-4.4
		c8.5,11.8-11.6,19.7-21,19.9C1060.7,515.3,1056.4,543.6,1049.2,531.4z"/>
	<path fill="#F7941D" d="M1052.1,543.7c-7.5-4-1.3-13.3,3.1-17.3c0.6-8.8,12.3-9.7,18.7-13c6.6-1.5,19.3-8.9,23.1-0.1
		c0.6-0.5,1.1-1,1.6-1.6c-1.1-2.9-4-4.8-4.8-7.8c0,0,0,0,0,0c0.7-13.6,19.7,6.1,12.1,12.6c-8.8,13.1-25.1,14.2-38.5,19.3
		C1062.2,538.2,1058.6,546,1052.1,543.7z"/>
	<path fill="#F7941D" d="M1325.8,446.3c-13.3,0.2-21.6-12.6-33.5-16.5c-7.5-3.7-21.2,3.6-23.6-7.2c-1.6-17.3,20.4-21,33.5-22
		c9.5-0.3,16.8,6,23.2,12.1c6.6,5.1,14.7,7.6,22,11.6c0,0,0,0,0,0C1361,432,1334.8,449.2,1325.8,446.3z"/>
	<path fill="#F7941D" d="M566,664.3c-8.3-2.4-4.5-13-0.3-17.6c4.4-6.3,11.8-9.2,18.9-11.5c5.4-1.9,47-12,46.8-4.3
		c13.4,11.6-12.2,24-21.5,27.5c-7.9,3.3-16.4,1.7-24.6,2.3C578.8,661.5,572.7,665.6,566,664.3z"/>
	<path fill="#F7941D" d="M878.2,433.1c-2.8-0.7-4-3-4.5-5.6c-6-5.4,7.1-43.3,13.1-48.3c8.8-8,16.7,0.5,15,10.4
		C900.5,401.2,892.8,433.9,878.2,433.1z"/>
	<path fill="#F7941D" d="M670.8,938.2c-14.1-0.3-39-10.6-28.6-28.1c6.8-9.9,17.8-0.4,26.8-0.5c15.4,1.3,39.7-22.8,52.6-9.8
		c5-0.1,9,4.4,7.5,9.3c-1.8,7.4-10.9,8.1-16.5,11.7C699.9,929.3,687.5,941.2,670.8,938.2z"/>
	<path fill="#F7941D" d="M1281.7,229.4c-16.8-8.2,7.6-24.8,15.3-30.6c9.5-5.3,20.9-2.6,30.7-6.6c4.9-1.5,8.3-7.6,13.9-6.2
		c7.4,2.5,6.2,12.8,3.8,18.5c-6.4,12.1-22.6,13.5-34.8,14.2C1294.9,219,1291.3,230.4,1281.7,229.4z"/>
	<path fill="#F7941D" d="M1339.7,496.4c-11.9-1.7-20.6-11-11.7-22c-0.1-2,1.3-3.9,3.1-4.7c0,0-0.1,0-0.1,0c0.6-0.3,1.2-0.4,1.8-0.5
		c0,0,0,0,0,0c8.6,1.7,17.2,2,25.3-1.9c12.1-4.9,34.7-20.4,42.9-3.2c0-0.1-0.1-0.1-0.1-0.2c7.6,14.7-18.7,20-28.5,22.9
		C1361.5,489.9,1351.8,499.1,1339.7,496.4z"/>
	<path fill="#F7941D" d="M868.3,438.8c-6.4-1.8-12.4-7.4-13.2-14.3c-0.6-6.8,7.1-9.3,9.7-14.8c7.7-14.1,8.2-34.1,24.3-41.9
		c4-1.9,9.8-3.3,12.9,0.7c8.2-1.9,8.3,8.2,11,13.3c3.7,7.5-4.9,11.7-9.4,16c-5.8,7.2-6.1,17.4-11.4,25
		C887,430.6,878.9,441.1,868.3,438.8z M873.3,424.7c13.8-9.6,11.3-30.4,25.8-39.5c-1.3-2.9-3.7-5.6-3.6-8.9
		c-15.2,10.5-10.5,34.7-24.3,47C871.8,423.9,872.5,424.4,873.3,424.7z"/>
	<path fill="#F7941D" d="M960.5,390.9c-25.3-11.2-1.1-17.1,6.1-29.2c4-8.8,1.7-19.9,8-27.6c3-10.6,23.2-4.3,17.6,6.5
		c-4.5,9.8-1.4,21.1-6.1,30.7C981.3,380.4,972.3,394.2,960.5,390.9z M966,378.8c3.2-2.2,5.8-5.3,7.5-8.8c-2.2,3.2-5,6-7.9,8.6
		C965.7,378.7,965.8,378.8,966,378.8z"/>
	<path fill="#F7941D" d="M1677.7,627.9c-10.7-6.5-54.1-18.9-32.9-35.2c2.7-5.8,11.7-3.9,17-4.6c13.3,3,22.2,15.7,34.2,21.5
		C1701.5,616.8,1685.3,631.6,1677.7,627.9z M1672.5,608.5c-3.1-2.7-6.2-5.3-9.4-7.8c-0.5,0.7-1.1,1.3-1.8,1.8c2.3,1.2,4.6,2.5,7,3.7
		c0,0-0.1,0-0.1,0C1669.7,607,1671.1,607.7,1672.5,608.5z"/>
	<path fill="#F7941D" d="M1668.7,612.5c-3.4-3-7.8-5.8-9.5-10.2c-0.1-7.1,5.8-5.2,9.7-2.2c1.9,0.9,4.5,2,3.8,4.5
		C1678.8,607.2,1674,616.2,1668.7,612.5z"/>
	<path fill="#231F20" d="M972.3,519.7c-10.2-9.8,8.1-12.9,12.9-18.3c6.8-7.1,10.6-27.4,23.5-22.8c5.1-3.4,12.6,3.8,10.6,9.2
		c-1.8,3.9-6.4,5.3-9.2,8.4C1000.3,506.7,989.8,528.6,972.3,519.7z M1004.5,487.7c0.3-0.3,0.7-0.6,1-0.9c0-0.1-0.1-0.2-0.1-0.2
		C1005.1,486.9,1004.8,487.3,1004.5,487.7z"/>
	<path fill="#231F20" d="M1226.9,372.8c-2.7-0.1-4.6-2.5-4.8-5.1c0.7-8.5,11.7-11.3,18.7-12.4c6.3,0.9,18.2-6.3,20.5,0.3
		C1263.3,373.5,1238.5,370.4,1226.9,372.8z"/>
	<path fill="#231F20" d="M1018.8,323.8c-2.4-0.6-4-2.9-4.1-5.4c-6.3-9.5-4.5-20.4-1.8-30.8c0.6-6,1.6-13.6-2.6-18.4
		c-1.8-1.6-2.6-3.9-2.6-6.2c0,0,0,0,0,0c-0.7-1.9,0.6-4.2,2.5-4.8c9.6-8.6,19.3,8.3,20.5,16.7c1.4,8.9-3.2,17.4-2.5,26.3
		c1,5.5,6,13.1-1.2,16.5C1026.8,321.4,1022.7,324.8,1018.8,323.8z"/>
	<path fill="#231F20" d="M610.1,752.1c-16.4-6.3-5.9-14.4,2.2-22.2c4.7-8.7,15.4-42.4,29.2-35.3c4.7-2,10.2,2.3,8,7.4
		c-1.5,3.3-3.9,6.1-5.3,9.5C639.7,725.6,629,756.3,610.1,752.1z M622,735c0.1-0.1,0.2-0.2,0.3-0.3c0,0,0,0-0.1,0
		C622.1,734.8,622.1,734.9,622,735z"/>
	<path fill="#231F20" d="M786.3,1000.9c-8.5-2.4-3.3-12.7-3.6-18.9c-1-11.7-3.2-34.3,8.4-41c2.3-3.1,6.7-3.5,9.5-0.9
		c4.7,6.6-0.9,15.9,1.6,23.6C803.5,976.6,804.3,1000.8,786.3,1000.9z"/>
	<path fill="#231F20" d="M1597.7,765.6c-7.1-1-12.9-8.8-8.1-15.3c6.5-8.4,19.6-7.6,25.7-16.6c9-13.2,18.2-30.5,35.7-32.9
		c7.2-1.6,10.5,9.1,2.8,10.5c7.8,10.4-14.6,18-19.2,27.1C1626.2,750.6,1614.7,768,1597.7,765.6z"/>
	<path fill="#231F20" d="M1734.8,533.5c-16.1,0.1-25-14.3-37.5-21.9c-5.8-3-13.6-3.6-17.3-9.5c-4.2-7.6,4.3-17.6,12.4-14.5
		c19.3-6.5,29.7,14.6,45.1,21.5c4.6,2.6,9.9,4.2,14.2,7.3C1760.4,526.7,1744.1,535.3,1734.8,533.5z"/>
	<path fill="#231F20" d="M701.5,1729.6c-41.9,1.2-83-8.8-120.8-26.9c-23.8-9.5-39.6-36.2-67.2-35.6c-75.2-4.6-149.7,21.5-224.6,11.5
		c-22.1-4.8-43.6-12.6-64.9-20.2c-21.7-8-38.2-26-47.1-47.1c-4.4-13.7-28.3-60.5-7.2-65.8c42.9,2.8,85.3-8.3,128.3-7.9
		c53.5-1.6,106.8,8.1,160.1-0.9c4.3-0.9,7.7,3.9,4.4,7.4c-16.4,8.1-36.8,7.8-54.9,10.2c-30.6,1.7-61.2-2.5-91.9-1.5
		c-26.3,0.5-52.6,1.6-78.7,5.2c-20.1,2.7-40.3,5.9-60.6,3.9c8.7,36.8,24,76.8,64.8,86.5c-0.3-0.1-0.6-0.2-0.8-0.3
		c22.7,7.4,45.3,17,69.4,18.4c65.3,2,129.5-15.4,194.8-14.1c33.9-2.6,47.6,14.9,72.6,32.7c26.3,14.1,55.2,24.6,84.7,29
		c62.1,7.9,124-2.8,184.7-15.4c62.3-7.3,122.9-24.9,185.3-30.9c-0.3,0-0.5,0-0.8,0.1c34.5-2.7,69.1-6.5,103.7-5.7
		c35.3,1.4,70.3,7.1,105.3,11.4c70.1,11.1,143.9,33.5,213.5,8.2c0,0-0.1,0-0.1,0c157.8-67.6,165.4-97,351.8-99.9
		c4.2-19.5,8.8-38.9,13.1-58.3c-77,2.2-154,1.5-231.1,1.6c-60.8,1-121.3,8.4-182.1,9.9c-51.5,1.3-103-1.1-154.5,0
		c-63.1,5.2-126.4,6.5-189.7,7.9c-10.4,0.1-20.8,0.2-31.2,0.1c-6,0.1-15.8,0.2-14.2-8.5c1.2-6.1,7.1-7.7,12.6-6.6
		c7.8,0.3,15.6,0.1,23.4,0.1c24.7,0,49.3-1.5,74-1.9c42.9,0.5,85.6-3.9,128.4-6.5c43.3-0.9,86.5,1,129.8,0.4
		c95.1-1.2,189.7-14.1,284.9-9.9c34.5,0.1,69,0.7,103.4-0.8c16.9-0.5,33.9-1.6,50.8-1c14.5,0.1,10.7,15.9,7.8,25.3
		c-5.5,18.3-6.9,38.2-14.4,55.8c-6.6,10.4-20.8,6.3-31.2,7.7c-74.4,1-149.6,10.6-216,46.2c-109.3,52.8-148.2,79.6-274.6,54
		c-54-10.5-108.7-18.8-163.6-21.7c-33.4-0.7-66.7,3.1-100,5.6c-59.7,5.5-117.6,22.7-177.3,29.3
		C803.4,1719.6,753.1,1732,701.5,1729.6z"/>
	<path fill="#231F20" d="M1175.9,872.5c-8.4,0.2-16.1-5.7-18.2-13.8c0,0.2,0.1,0.3,0.1,0.5c-2.3-6.6-0.4-14.6,4.6-19.4
		c3.4-5.1,8-9.5,13.8-11.9c-0.1,0.1-0.3,0.1-0.4,0.2C1217.8,812.5,1220,872.1,1175.9,872.5z M1181.6,865.4
		c11.7-1.4,25.9-13.9,18.2-26.2c-9.4-13.1-30.6-4.4-35.5,8.7C1159.9,858.6,1171.4,868,1181.6,865.4z"/>
	<path fill="#231F20" d="M1173.1,866.9c-12.7-1.7-1.4-19.7,7.3-15.5C1189.5,855.4,1182,871,1173.1,866.9z"/>
	<path fill="#231F20" d="M1187.9,828.9c-2.5-4.8,6.4-9.1,8.7-13c1.8-1.4,3.4-5.9,6.1-3.8c0.9,0.9,0.9,2.5,0.1,3.5
		C1200.5,817.6,1189.7,831.1,1187.9,828.9z"/>
	<path fill="#231F20" d="M1199.2,833.5c-1.8-4.3,5.1-7.9,6.6-11.9c1.9-4.8,8.4-2.7,5.1,2c0,0,0-0.1,0.1-0.1
		C1207.8,826.5,1203.1,832.7,1199.2,833.5z"/>
	<path fill="#231F20" d="M1204.3,838.7c2.5-4.3,7.1-7.4,10.6-11c2.3-1.8,5.2,0.6,4.6,3.3c-0.4,2.5-3,3.5-4.8,4.8c0,0,0,0,0,0
		C1212.4,836.6,1204.5,844.3,1204.3,838.7z"/>
	<path fill="#231F20" d="M1143.9,821.7c-5.9-10.5,15.5-31.3,25.8-33.3c11.4-4.5,28.7-6.6,35.9,5.7c0.8,1.3,0.3,3.1-0.7,4.1
		c-1,0.9-2.7,1.2-3.6,0.1c-12.5-10-36.3,0-46.1,10.6c0.1-0.2,0.3-0.3,0.4-0.4c-0.1,0.2-0.3,0.3-0.4,0.5c0,0,0-0.1,0.1-0.1
		c-0.1,0.1-0.2,0.2-0.3,0.3c0,0,0.1-0.1,0.1-0.1c-3.1,3.6-6,7.5-7.7,11.9c0,0,0,0,0,0C1146.7,822.1,1145,822.5,1143.9,821.7z"/>
	<path fill="#231F20" d="M1101.4,915.2c-20-2.9,2.7-25.3,6-34.8c0,0,0,0.1-0.1,0.1c3.8-8.3,6.1-17.5,5.6-26.7c0,0.1,0,0.3,0,0.4
		c0-2.9-0.4-5.8-0.6-8.7c0,0,0,0,0,0c2.8-6.2,5.1,5.4,5.4,7.6c0-0.1,0-0.1,0-0.2c0,0.1,0,0.2,0.1,0.4c0,0,0,0,0,0
		c0,0.1,0,0.3,0.1,0.4c0-0.1,0-0.2-0.1-0.4c0,0.2,0.1,0.4,0.1,0.5c0,0,0,0,0,0c3.3,19.7-8,37.1-17.4,53.3
		c14.2,3.3,18.4-15.2,25.9-23.1c8.3-2.6,3.3,11.2-0.2,13.3C1120.8,906.2,1112.9,916.8,1101.4,915.2z"/>
	<path fill="#231F20" d="M1071.3,916.7c-2.6-3.7,1.2-9.9,3.6-13.2c0.7-0.9,2-1.2,2.8-0.3c2,2.7-2,5.1-2.8,7.6c0,0,0,0,0,0
		c0,0.1-0.1,0.2-0.1,0.3c0,0,0-0.1,0.1-0.1c-0.7,1.5-1.5,3-1.9,4.7c0,0,0,0,0,0C1072.9,916.4,1072,917.1,1071.3,916.7z"/>
	<path fill="#231F20" d="M1078.5,917.3c-3.4-2.8,7.5-24.5,7.8-12.7C1083.8,907.1,1082.4,920.5,1078.5,917.3z"/>
	<path fill="#231F20" d="M1087.7,913.7c-0.8-3.4,1.5-7.3,2.6-10.6c0.3-0.8,1.3-1.3,2.1-0.9c2.3,2.4-1.8,6.1-2.2,8.8
		c0-0.1,0-0.1,0.1-0.2c-0.1,0.4-0.3,0.8-0.4,1.2C1090.3,913.3,1088.7,914.9,1087.7,913.7z"/>
	<path fill="#231F20" d="M1157.2,899.2c0.2-3,1.4-5.8,2.4-8.6c0,0,0,0,0,0c0-0.1,0.1-0.2,0.1-0.4c0,0,0,0,0,0
		c0.1-0.4,0.3-0.8,0.4-1.2c0,0,0,0.1,0,0.1c1.5-2.5,1.9-8.9,5.9-7.9c1.2,0.6,1.5,2.2,1,3.3c-1.2,2.5-2.3,5.1-3.3,7.7c0,0,0,0,0-0.1
		c0,0.1-0.1,0.2-0.1,0.2c0,0,0,0,0,0c-0.1,0.4-0.3,0.8-0.4,1.2c0,0,0-0.1,0-0.1c-1.6,2.5-0.5,6.9-3.5,8
		C1158.3,901.9,1157.2,900.6,1157.2,899.2z"/>
	<path fill="#231F20" d="M1170.7,898.1c-1.2-0.1-1.7-1.6-1.2-2.5c0,0,0,0.1-0.1,0.1c1.5-2.9,4.7-13.8,8.5-12.5c0.9,0.6,1,2,0.4,2.9
		C1175.9,888.7,1173.3,897.7,1170.7,898.1z"/>
	<path fill="#231F20" d="M1184.3,891.1c-0.5-4.6,3.4-8.9,5.2-13c3.2-3.8,5.9,1.4,3.2,4.3c0-0.1,0.1-0.1,0.1-0.2
		c-0.1,0.2-0.3,0.5-0.4,0.7c0-0.1,0.1-0.1,0.1-0.2c-0.1,0.1-0.1,0.2-0.2,0.3c0,0,0,0,0,0C1190.1,885.5,1188.4,896.2,1184.3,891.1z"
		/>
	<path fill="#231F20" d="M1266.1,1037.8c-3.6-30-0.3-60.5-0.3-90.6c0.2-15.3,0-30.6,0.6-45.9c1-6-2.5-13.3,1.4-18.5
		c-1.6-8.2,4.6-10.5,10.1-14.4c10.9-7.8,15.7-20.1-2-21.5c-0.8,2.9-3.4,5.7-6.6,5.4c-2.2,1.6-4.3,3.9-7.1,4.6
		c-3.7,6.3-5.7,20.9-11.6,24.2c-1.7,3.2-3.1,12.2-8.4,8.9c-6.1-0.6-1.6-9-1.2-12.7c2.6-8.6,4.1-17.5,5.6-26.4
		c-0.5-1.1-0.2-2.4,0.6-3.3c1.1-25.2,3.6-54.9-12.4-76.1c-26-27.4-72-24.7-102.5-6.6c0,0,0,0,0,0c-4.5,4.1-12.7,5.1-6.8-2.8
		c-1.7,0.6-3.4,1.3-5,2c0.1,0,0.2-0.1,0.3-0.1c-7.4,1-33.5,32.1-27.3,8.8c-11.2,13.2-23.1,28.1-28.2,44.8c8-8.3,22.3-7.7,31.3-1.2
		c3.2,2.6,9.5,7.6,5.9,11.9c-1.1,1.1-2.8,1.2-3.9,0.1c-8.9-9.2-26.1-9.4-33.6,1.6c0,8.9,0.6,17.8,0.4,26.7
		c10.6-20.7,38.7-15.2,39.8,8.5c1.7,19.6-26.4,30.3-39.5,16.9c2.3,42.8,4.3,98.9,62.2,91.7c17.3-5.4,9.6,19.6,10.9,29.2
		c-1.9,9.5,5,35.9-7.6,37.3c-10-0.5-5.9-12.5-5.4-18.9c1.3-11.9,2.5-23.8,3.7-35.7c0,0.3-0.1,0.5-0.1,0.8c0.1-1.4,0.3-2.8,0.3-4.2
		c-23.1,4.1-52.4,0.5-61.8-24.3c0,0.1,0,0.1,0.1,0.2c-0.1-0.2-0.1-0.3-0.2-0.5c0,0,0,0,0,0c0,0,0,0,0,0c0,0,0,0,0,0c0,0,0,0,0,0.1
		c0,0,0,0,0,0c0,0,0,0,0,0c-11.6-27.7-10.3-58.8-10.4-88.3c-3.7,0.2-15,6.2-15.4,0.2c0.2-5.2,11.2-1.8,15.1-2.7
		c0.1-0.1,0.3-0.2,0.5-0.2c0.1-1.3,0.2-2.6,0.3-3.8c-4.3-0.8-15.4,0.6-13.5-6.5c2.5-4.8,7.3,0.7,10.8,1.4c0,0,0,0,0,0
		c0.1,0,0.1,0.1,0.2,0.1c0,0-0.1,0-0.1-0.1c1,0.4,1.9,0.7,2.9,1.1c0.1-1.3,0.2-2.7,0.3-4c-2.7-2.6-10.1-5.3-7.3-9.9
		c3.2-3.5,5.3,2.3,7.5,4.1c0.1-4.1,0.2-8.2,0.3-12.3c-0.2,0.1-0.4,0.1-0.7,0.2c0,0,0,0,0,0c-3.3-0.3-1.9-4.6-0.9-6.6
		c4.2-9.8,2.9-21.4,6.4-31.6c6-16.7,14.2-33.8,28.6-44.8c-0.1,0.1-0.3,0.2-0.4,0.3c0.9-0.8,1.9-1.6,2.8-2.4c0,0,0,0,0,0
		c26.9-20.5,62.7-29.8,96-32.7c45.4-0.1,83.6,18,88.6,67.3c0,0,0,0,0,0c2.4,16.8,2.6,34.1-1.1,50.7c30.1,4.5,17.2,32.7-1.7,43.3
		c0.5,11.9-0.6,23.8,0.3,35.7c0,0,0-0.1,0-0.1c0,0.8,0,1.5,0.1,2.3c0,0,0,0,0-0.1c0,0.2,0,0.4,0,0.5c0,0,0,0,0,0c0,0,0,0.1,0,0.1
		c0,0,0-0.1,0-0.1c-1.2,31.1-0.1,62.3-1.2,93.4c-1.2,7.2,3.6,27-5.4,28.7C1268.4,1040.8,1266.8,1039.6,1266.1,1037.8z M1089.9,867.2
		c3.4,2.3,3.3,7.1,1.6,10.5c20.9-9.1-1.5-36-17.9-21.5c0.1-0.1,0.3-0.2,0.4-0.3c-0.7,0.6-1.4,1.2-2,1.9c-2.6,8.3-4.3,15.5,5.8,19.4
		c-0.8-3.2,1.1-7.1,4.4-8.1C1083.9,866.8,1087.3,865.4,1089.9,867.2z M1260,757.5c0.1-0.1,0.3-0.1,0.5-0.2c-0.5-0.7-0.9-1.4-1.4-2.1
		C1259.4,755.9,1259.7,756.7,1260,757.5z"/>
	<path fill="#231F20" d="M1228.6,737.1c-4-0.4-5.9-5.2-4.6-8.7c-2.1,0.2-4.3-0.7-5.7-2.5c0.4,3.2-2.7,7.8-5.7,4.5
		c-3-10.7,0.1-22.9,2.3-33.6c4.6-16.5,12.3-32.1,22.8-45.7c12.4-23.5,65.2-42.2,67-2.8c0.7,32.3-45.9,77.3-74.4,88.6c0,0,0,0,0,0
		C1229.8,737.2,1229.2,737.2,1228.6,737.1z"/>
	<path fill="#231F20" d="M1244.6,890c-1.5-3.2,3.1-5.9,4.1-8.8c7-10.8,11-23.6,19.1-33.7c2.2-4.2,8.1-4,5.9,1.5
		c-1.6,2.4-3.7,4.4-5.2,6.8C1264,861.1,1251.1,893.1,1244.6,890z"/>
	<path fill="#231F20" d="M1267.6,1046.2c-2.2,0.1-4.2-1.1-5.2-3.1c0,0,0,0,0,0c-2.8-5.2,1.4-10.8,6.6-12c7-4.5,14-9.1,20.9-13.8
		c6.6-4,14.6-20.1,22.9-16.7c2.5,1.9,2.8,5.6,1.2,8.1C1301.5,1023.8,1285.6,1038.7,1267.6,1046.2z"/>
	<path fill="#231F20" d="M1126,1039.2c-0.5-0.2-0.9-0.4-1.4-0.5c-5.1,0.4-8.4-4.6-12.9-6.2c-6.2-3.7-13.4-6.5-19-11.2
		c-2.7-3.6-0.3-9.5,4-10.5c11.8-1.3,20.3,9,29,15.3c-0.2-0.1-0.5-0.3-0.7-0.4c3,1.3,5.3,4,4.6,7.4
		C1139.1,1036.1,1133.3,1043.1,1126,1039.2z"/>
	<path fill="#231F20" d="M1446.2,994.1c-8.6-5.8,2-21.6,2.7-29.9c9.7-30.3,19.5-60.5,26.8-91.5c23.7-72.4,39.9-147.3,65.5-219.1
		c-0.1,0.3-0.2,0.7-0.4,1c13.2-39.2,28.2-77.7,42.5-116.6c11.8-27.5,18.9-56.9,32.3-83.6c24-38.6,35-83.1,53.7-124.1
		c0,0.1-0.1,0.1-0.1,0.2c0.2-0.3,0.3-0.6,0.5-0.9c0,0,0,0,0,0c8.3-24.6,16.9-22.8,37.7-33.6c-3.7,0-7.3,0.3-10.9,0.7
		c0.1,0,0.3,0,0.4-0.1c-8.3-0.5-31.4,12-33.1-0.7c0.2-6.8,22.5-15.5,28.6-21.8c-12.7,3.7-23.6,11.1-35,17.5
		c-10.7,5.3-16.8-4.5-9-12.9c8.2-10.8,16.5-21.5,25.5-31.7c-15.7,9.3-29.6,21.8-40.4,36.6c-1.1,1.6-2.7,3.6-5,3.2
		c-13.6-6.7,25.3-42,25.4-54.3c0,0.2,0,0.5-0.1,0.7c0.1-0.4,0.1-0.9,0.1-1.3c-24.6,16.1-37.3,45.1-52.7,69.4
		c0.1-0.1,0.1-0.3,0.2-0.4c-0.6,1.2-1.2,2.4-1.9,3.5c0.1-0.1,0.1-0.3,0.2-0.4c-3.4,6.7-6.7,13.4-10.1,20c0.2-0.3,0.3-0.6,0.5-0.9
		c-47.7,95.8-90.7,194.4-122.4,296.7c-20.4,59.1-46.1,116.2-66.4,175.3c0.1-0.1,0.1-0.3,0.2-0.4c-0.4,1-0.7,1.9-1.1,2.9c0,0,0,0,0,0
		c-0.1,0.2-0.1,0.3-0.2,0.5c0-0.1,0-0.1,0.1-0.2c-14.1,42.4-30.1,84-45.2,126c-2.3,3.3-10.8,42.3-15.3,29.9c0,0,0,0,0,0
		c0.5-1.7-1-4.1,1-5.1c6.1-26.6,14.1-52.8,23.6-78.4c-0.1,0.3-0.2,0.5-0.3,0.8c25.4-78.1,52.6-155.6,83.7-231.8
		c34.7-111,79-218.8,131.6-322.6c-0.1,0.1-0.1,0.3-0.2,0.4c13.7-28.3,30.2-55.3,49.1-80.4c7.8-7,16.8-16.7,27.8-17.1
		c14.1,5,4.1,22.7-1.8,30.8c7-3.8,24.7-22,29.6-8.7c0.4,6.9-6.7,11.5-10.2,16.7c-5.8,7.3-11.2,14.8-16.4,22.5
		c13.8-8.5,28.9-17.4,45.5-18c13.8,7.1-8.8,20.4-14.8,25.3c9.9-2.5,41.6-6.3,28.2,12.2c-9.5,10.9-31.8,10.4-32.3,27.8
		c-19,45.3-32.7,93.2-58.8,135.3c-20,47.8-35.7,97.5-55.5,145.6c0.1-0.3,0.2-0.7,0.4-1c-7.3,20.8-13.8,41.8-21.8,62.3
		c0-0.1,0.1-0.2,0.1-0.3c-14.9,46-27.3,92.9-40,139.6c-8.5,31-19.8,61.2-26.8,92.6c-5.4,22.9-14,44.9-20.4,67.6
		C1457.4,977.2,1458.6,997.3,1446.2,994.1z"/>
	<path fill="#231F20" d="M962.6,1090.7c-37.8-56.4-66-118.1-96.5-178.6c-15-32.5-34.5-62.7-50.4-94.7c0.1,0.2,0.2,0.4,0.2,0.5
		c-0.7-1.5-1.3-2.9-2-4.4c0.1,0.1,0.1,0.3,0.2,0.4c-19.5-41.8-38.2-83.8-53.4-127.3c-12.1-27.5-23.4-55.4-31.5-84.4
		c-11.8-34.2-13.2-71.1-26.7-104.5c-8.8-17.4-8.5-37.8-18.3-54.5c-4.9-12.1-15.3-20.6-21.1-32.1c-8.6-20.2,6.4-25.2,21.1-12.4
		c-12.9-28.4,7.6-36.7,23.7-12.2c-7.4-38.6,3.8-49.6,19.4-7.4c1-9.7,0-20.6,5.9-28.9c6.1-6.6,13.9,1.7,14.9,8.4
		c3.3,21.4,1.6,43.9,12.2,63.5c8.1,25.5,25.9,46.1,37,70.3c13.5,30.8,26.5,61.7,42.6,91.3c30.7,62.6,59.1,126.5,97,185.2
		c18.4,34.8,41.7,66.6,61,100.9c15.3,26.1,32.8,51.5,44,79.6c4.4,13.1,9.2,26,14.2,38.9c1.4,5.6,9.3,17.8-0.4,18.5
		c-18.3-22.3-22.2-53.5-38.9-77.1c0.2,0.3,0.3,0.5,0.5,0.8c-7.8-11.8-14-24.6-21.8-36.4c0.2,0.3,0.4,0.6,0.5,0.9
		c-38.7-61.9-77.3-123.9-111.7-188.3c-24.7-49-46.6-99.5-71.9-148.3C798,528.5,788,496.7,770,468.7c-13.1-20.3-23.8-42.9-29.3-66.4
		c-3-14.3-1.3-29.1-3.2-43.4c-2.8,9.9-2.1,20.4-3.1,30.5c-7.2,21.9-18.3-21.7-22.7-27.1c0.3,9.6,2.3,19.2,4.6,28.5
		c0.8,3.5,3.2,6.7,3,10.3c-0.5,4.5-5.7,6.3-9,3.4c-7.8-6.2-10.3-17.6-20.2-21.7c1.5,10.3,9.7,17.9,12.1,27.8
		c-2.1,20.4-23.1-3.2-31.3-7.2c2.7,7.3,8.9,12.5,13.5,18.6c5.6,7.4,9.7,15.8,14.6,23.7c6.4,14.8,8.3,31.4,15.7,46
		c9.8,20.6,11.8,43.5,16.9,65.5c9.1,37.2,20,74.1,35.7,109.1c10.7,23.2,17.7,47.7,27.6,71.2c10.2,24.5,22.7,47.9,32.9,72.3
		c13.9,28,31,54.3,44.5,82.5c29.1,56.1,54.7,114.3,88.8,167.7c0,0,0,0,0,0c3.8,9,19.4,21.7,11.2,31.2
		C969.6,1094,965,1093.9,962.6,1090.7z"/>
	<path fill="#231F20" d="M1337.7,964.7c-12.3-3.5,0.8-23.2,1.3-31.7c5.9-18.6,12.3-37.2,20-55.1c6.8-19.7,18.9-10,10.3-3.6
		c-5.6,11.7-8.8,24.5-12.3,37c2.4,8.9-4.2,18.3-5.6,27.2C1347.5,945.8,1348.2,964.5,1337.7,964.7z"/>
	<path fill="#231F20" d="M936.8,714.2c-4.3-8.8-5.6-18.8-9.9-27.7c-1.8-3.9-9-13.6-0.4-13.7c0,0-0.1,0-0.1,0
		c9.3,9.7,12.2,24.5,18.1,36.5C946.6,713.9,939.7,719.3,936.8,714.2z"/>
	<path fill="#231F20" d="M966.8,737.5c-2.2-0.2-2.6-2.7-3.5-4.4c0.1,0.1,0.1,0.3,0.2,0.4c-0.4-3.6-20.3-37.9-10.6-33.2
		C955.1,705.6,978.9,737.9,966.8,737.5z"/>
	<path fill="#231F20" d="M735.9,739.1c-8.4-12.9-11-28.6-18.3-42.1c-2.5-0.8-1.9-4.9,0.5-5.4c5.2,0.7,6.2,9.4,8.8,13.3
		c4.3,9.9,8.3,20,14.3,29C743.8,737.2,739,742.8,735.9,739.1z"/>
	<path fill="#231F20" d="M739.7,779.9c-3.8-1.4-4.2-7-6.3-10.1c-4.7-9.7-10.1-19.1-14.2-29.1c-2.1-3.6,2.2-7.9,2.9-2.2
		c0-0.1,0-0.2-0.1-0.2c0.2,0.7,0.5,1.3,0.8,2c0,0,0,0,0,0c4.3,9.1,9.6,17.6,14.9,26.2C739.8,770.1,748,778.5,739.7,779.9z"/>
	<path fill="#231F20" d="M1413.5,647.2c0,0,0.1,0,0.1,0c-0.1,0-0.2,0-0.2,0C1413.5,647.1,1413.5,647.1,1413.5,647.2
		c-0.1,0-0.2-0.1-0.3-0.1c0,0,0,0,0,0c-0.2-0.1-0.4-0.2-0.6-0.3c0,0,0,0,0,0c-2.9-2.6-0.7-7.2,0.2-10.3c0,0.1,0,0.1-0.1,0.2
		c0.1-0.2,0.2-0.4,0.2-0.6c0,0.1,0,0.1-0.1,0.2c0.1-0.3,0.3-0.7,0.4-1c-0.1,0.1-0.1,0.3-0.2,0.4c0.2-0.4,0.3-0.8,0.5-1.3
		c-0.1,0.1-0.1,0.3-0.2,0.4c4-10.4,9.1-20.4,12.5-31c1.5-3.2,1.4-10.2,6.4-9.4c7.3,4.2-8.3,28.1-10.4,35c-1.9,4.6-4.9,9.2-5.5,14.2
		C1417,645.3,1415.5,647.5,1413.5,647.2z"/>
	<path fill="#231F20" d="M1406.2,618.2c0.1-1,0.5-2.1,0.8-3c0,0.1-0.1,0.2-0.1,0.2c6-13.7,10.7-28.1,18.1-41.2
		c2.9-4.3,7.4,1.3,4,4.4c0,0,0,0,0,0c-1.8,2.6-3.5,5.3-5.1,8c0,0,0,0,0,0c-4.9,9.8-10.1,19.5-14.2,29.7c-0.6,1.3-0.3,3.5-2.1,3.7
		C1406.6,620.1,1406.1,619.1,1406.2,618.2z"/>
	<path fill="#231F20" d="M1579.4,642.3c0.6-9,7.8-16,11.5-24c1.8-2.8,2.9-9,7.4-7.3c7.4,6.9-13.3,22-14,30.4c0,0,0,0,0,0
		C1584.7,644.7,1579.8,645.9,1579.4,642.3z"/>
	<path fill="#231F20" d="M1601,652.2c-5.2-4.4,3.6-14,5.1-19.2c0,0,0,0.1-0.1,0.1c3.8-6.2,6.4-14.1,12.1-18.7c4.3-1.5,6.6,4.4,4,7.3
		c-5.2,7.3-10.3,14.7-14.1,22.8C1606.3,647.4,1605.8,653.9,1601,652.2z"/>
	<path fill="#231F20" d="M1116.6,963.3c-17.5-0.2-32.4-16.1-35.2-32.6c-4.8-9.2,24-14.8,30.2-17.5c14.4-4.6,29.8-3.4,44.5-6
		c0,0-0.1,0-0.1,0c0.1-0.1,0.2-0.1,0.3-0.2c-0.1,0-0.1,0.1-0.2,0.1c5-1.6,4.2,5.9,4.3,8.9C1160.3,940,1142.1,964.7,1116.6,963.3z
		 M1125.1,955.1c10.6-1.6,19.7-8.9,25-18c0,0,0,0,0,0.1c0.1-0.1,0.1-0.3,0.2-0.4c0,0,0,0.1-0.1,0.1c3.2-7.5,5.2-15.8,4.7-24
		c-13.2,2.8-26.8,2.7-39.8,6.2c0.1,0,0.3-0.1,0.4-0.1c-8.5,2.7-17.1,4.9-25.2,8.7C1095.6,942.8,1107.1,958.3,1125.1,955.1z"/>
	<path fill="#231F20" d="M438.2,1552.9c-3.6-3.5-4-9.7-6.5-14.2c-0.6,0.2-1.3-0.2-1.4-0.9c-4.7-1.6-4.9-7.6-6.9-11.5
		c-4.1-10.5-7.9-21.2-12.3-31.6c-28.8-64.5-50.6-131.8-75.1-198c-7.3-15.2-7.2-33.7-16.8-47.4c-2.6-2.4-2.9-6.3-0.2-8.8
		c6-4.9,14.5-4.6,21.8-5.7c16.9-2.8,33.8-4.6,50.9-5.6c68.6-4,137.4-2.6,206-5.4c38.4-1.9,76.9-1.7,115.4,0.4
		c8.3,1.4,14.3-5,19.1,5.1l0,0c0.1,0.2,0.2,0.3,0.3,0.5c0,0,0,0,0,0c25.3,56.3,34.8,118.2,50.9,177.5c6.7,22.6,14.6,44.8,21.9,67.2
		c0.9,7,11.7,19.3,2.4,23.4c0.5,1.8,1,3.6,1.4,5.4c70.4-1.7,140.8-8.3,211.2-4.1c-0.2,0-0.3,0-0.5,0c32.6,1.9,65.4,0.9,97.6,7.1
		c-0.1,0-0.1,0-0.2,0c0.4,0.1,0.7,0.1,1.1,0.2c-0.3,0-0.6-0.1-0.9-0.1c0,0,0.1,0,0.1,0c-0.7-0.1-1.5-0.2-2.2-0.4
		c10.7,1.9,21.6,2.2,32.4,2.4c1,5.4,3.1,10.7,6.3,15.3c1,6,1.9,12.1,3.6,17.9c-43.7,8.3-89.7,5.5-134.3,5.9
		c-62.5,0.3-125.1,0.2-187.6-0.2c-41.1-1.7-82.3,1.5-123.4,1c-44.6,0.9-89.3-0.3-133.8,2.1C531.7,1552.5,484.5,1549.8,438.2,1552.9z
		"/>
	<path fill="#231F20" d="M809,1512.5c-0.4-0.3-0.8-0.6-1-1c-4.3-1.6-4.5-16.1-7.2-20.9c-0.7-0.3-1.2-1-1.2-1.9c0,0,0,0,0,0
		c-2.7-4.1,6.1-8.8,7.3-1.3c2.2,6.1,3.8,12.5,6.5,18.4C815.7,1509,813.2,1514.6,809,1512.5z"/>
	<path fill="#231F20" d="M840.5,1512.1c-3.2-2.8-3.9-7.3-5.2-11.2c3.2,0.3,6.7,0.2,9.9-0.6C847.2,1504.8,848.3,1515.2,840.5,1512.1z
		"/>
	<path fill="#231F20" d="M957.7,1502.5c-1-1.2-0.8-2.8-0.6-4.3c3,0.1,6-0.2,8.9-1C965.3,1500.6,961.3,1506.1,957.7,1502.5z"/>
	<path fill="#FFFFFF" d="M540.1,1406.5c-6.2-1-13.2-2.1-18.2-6c-8-10.6-6.4-26,0.2-36.9c4.6-10.4,23.5-20.1,30.8-7.9
		C584.8,1364.6,569.7,1409.7,540.1,1406.5z M545.2,1397c27.2-5.3,19.7-37-6.9-30.9c-8.8,3.6-14,18.1-7.6,25.5c4,2.3,11,0.4,12.8,5.4
		C544.1,1397,544.6,1397,545.2,1397z"/>
	<path fill="#FFFFFF" d="M1023.1,1141.7c-5.8-2.1,0.9-12.5,1.2-17c1.3-2.4,3.3-19.4,7.4-12.9c0,0,0,0,0,0
		C1030.5,1117.5,1029.7,1141.9,1023.1,1141.7z"/>
	<path fill="#FFFFFF" d="M1046.8,1121.2c-5.2-1,6.6-17.7,5.8-23.5c0,0,0,0,0,0C1057.4,1088.8,1052.3,1124.7,1046.8,1121.2z"/>
	<path fill="#FFFFFF" d="M1100,1078.9c-3-5.9,6.8-8.1,11-6.8c2.5,0.8,1.2,4.7-1.1,4.5c0.1,0,0.2,0,0.4,0c-0.2,0-0.5,0.1-0.7,0.1
		c0.1,0,0.2,0,0.3-0.1c-0.5,0.1-0.9,0.2-1.3,0.4c0.1,0,0.2-0.1,0.3-0.1c-0.3,0.1-0.6,0.2-0.9,0.3c0.1,0,0.2-0.1,0.3-0.1
		C1105.5,1077.7,1102.5,1081.7,1100,1078.9z"/>
	<path fill="#FFFFFF" d="M1101.5,1103.5c-6.4-7.1,9.5-6.8,13.4-8.6c1.3-0.4,2.6,0.4,2.9,1.7c-0.2,5.9-9.7,4.2-13.7,6.7
		c0.1,0,0.2-0.1,0.3-0.1c-0.1,0-0.2,0.1-0.4,0.1c0,0,0,0,0,0C1103.2,1103.7,1102.3,1103.9,1101.5,1103.5z"/>
	<path fill="#FFFFFF" d="M1301.5,1095c-5-0.8-19.8-9.2-10.8-13.8c1.1,0,2,0.8,2.1,1.8c1.4,2.1,4.1,2.8,6.4,3.7
		c-0.1,0-0.3-0.1-0.4-0.1c2.9,1,8.5,1.2,7.1,5.7C1305.3,1094.1,1303.3,1095.6,1301.5,1095z"/>
	<path fill="#FFFFFF" d="M1282.4,1120c-2.4-2.2-3.6-8.2,0.6-8.9c2.8,0,1.6,2.9,2.4,4.4C1288.3,1117.5,1285.3,1122.7,1282.4,1120z"/>
	<path fill="#FFFFFF" d="M1232.8,708.1c0,0.3,0.2,0.5,0.3,0.7c-3.2-9.7,7.5-36.5,15.1-43.1c7.7-0.3,1.6,7.8-0.5,10.9
		c0.1-0.2,0.2-0.3,0.3-0.5c-0.2,0.3-0.3,0.6-0.5,0.9c0,0,0,0,0-0.1c-0.1,0.3-0.3,0.5-0.4,0.8c0-0.1,0.1-0.1,0.1-0.2
		c0,0.1-0.1,0.1-0.1,0.2c0,0,0-0.1,0.1-0.1c-4.9,8.7-9.4,17.9-10.7,27.8C1238.8,707.8,1234,711.6,1232.8,708.1z"/>
	<path fill="#FFFFFF" d="M1245.2,697.1c-4.1-2.8,2.4-8.6,3.7-11.9c2.7-2.8,4.6-10.7,9.4-9.4c3.4,4-4.4,7.9-5.8,11.6
		c0.1-0.1,0.1-0.2,0.2-0.3C1249.4,689.6,1249.3,697.2,1245.2,697.1z"/>
	<path fill="#FFFFFF" d="M1233.6,756.2c-7.4-2.7,8-13.3,9.5-7.1c0.7,3.9-3.7,4.2-6.3,5.4C1235.9,755.2,1235.1,756.5,1233.6,756.2z"
		/>
	<path fill="#FFFFFF" d="M1238.9,766.5c-2.1-2.7,5.3-8.6,7.2-5.5C1248.2,763.3,1240.2,768.9,1238.9,766.5z"/>
	<path fill="#FFFFFF" d="M1247.5,777.1c0-3.6,5.8-4.5,5.7-0.4C1253.2,780.3,1247.3,781.2,1247.5,777.1z"/>
	<path fill="#FFFFFF" d="M1227.4,1304.9c-17.2-0.9-45.5-14.1-47.1-33.2c0.5-3.2,5.4-2.9,4.6,0.6c0,0,0,0,0-0.1c0,0,0,0,0,0
		c0,0,0-0.1,0-0.1c5,15.3,24.5,22.9,39.2,25.7c-0.1,0-0.3,0-0.4,0c16.5,1.9,30.3-8.7,42-19.1c0,0-0.1,0.1-0.1,0.1
		c1.1-1,2.3-1.9,3.4-2.9c-0.1,0.1-0.2,0.2-0.3,0.2c0.2-0.1,0.3-0.3,0.5-0.4c0,0,0,0-0.1,0.1c0.8-0.7,1.5-1.3,2.3-2
		c0,0-0.1,0.1-0.1,0.1c3.7-3.1,7.4-6.2,11.2-9.2c4-3.1,7.7,3,4.1,5.8c-2.7,2.4-5.5,4.8-8.2,7.2c0,0,0.1,0,0.1-0.1
		C1263.8,1290,1248.2,1305.7,1227.4,1304.9z"/>
	<path fill="#FFFFFF" d="M1296.6,1284.7c-3.9-2.6,16.2-19.4,18.3-24.9c0.7-0.9,2.1-1.3,3.1-0.7c3.2,4.3-6.1,10.9-8.3,14.6
		C1306.2,1276.3,1300.9,1286.7,1296.6,1284.7z"/>
	<path fill="#FFFFFF" d="M1330.3,1279.6c-2.8-2.5,1.3-5.7,2.5-8c1.9-2,3.6-7.1,7.1-5.5c3.6,3.7-3.5,7.5-5,10.8
		C1333.9,1278.4,1332.4,1280.8,1330.3,1279.6z"/>
	<path fill="#FFFFFF" d="M1290.5,1429.5c-4.9-7.9,12.4-12.5,17.3-16c7.2-1.4,5,7.4-0.6,8.3
		C1302.1,1422.9,1294.6,1432.6,1290.5,1429.5z"/>
</g>
</svg>
